<svg width="26" height="26" viewBox="0 0 26 26" fill="none" xmlns="http://www.w3.org/2000/svg">
<path d="M13 0.8125C6.26934 0.8125 0.8125 6.26934 0.8125 13C0.8125 19.7201 6.28047 25.1875 13 25.1875C19.7301 25.1875 25.1875 19.7301 25.1875 13C25.1875 6.27988 19.7201 0.8125 13 0.8125ZM19.3281 14.875H12.2969C12.2347 14.875 12.1751 14.8503 12.1311 14.8064C12.0872 14.7624 12.0625 14.7028 12.0625 14.6406V4.79688C12.0625 4.73471 12.0872 4.6751 12.1311 4.63115C12.1751 4.58719 12.2347 4.5625 12.2969 4.5625H13.7031C13.7653 4.5625 13.8249 4.58719 13.8689 4.63115C13.9128 4.6751 13.9375 4.73471 13.9375 4.79688V13H19.3281C19.3903 13 19.4499 13.0247 19.4939 13.0686C19.5378 13.1126 19.5625 13.1722 19.5625 13.2344V14.6406C19.5625 14.7028 19.5378 14.7624 19.4939 14.8064C19.4499 14.8503 19.3903 14.875 19.3281 14.875Z" fill="#515151"/>
</svg>
