<svg width="28" height="28" viewBox="0 0 28 28" fill="none" xmlns="http://www.w3.org/2000/svg">
<path fill-rule="evenodd" clip-rule="evenodd" d="M27.7253 10.6011L19.4081 2.24319C16.417 -0.74773 11.583 -0.74773 8.59187 2.24319L0.274736 10.6011C0.00681765 10.8684 -0.0736672 11.2719 0.0710632 11.6223C0.215794 11.9727 0.556999 12.2003 0.934508 12.1983H2.34402V21.3097C2.34953 25.0023 5.32706 27.9945 9.00172 28H10.4312C10.9463 27.9945 11.3609 27.5733 11.3609 27.0557V19.3809H16.6391V27.0557C16.6391 27.5733 17.0537 27.9945 17.5688 28H18.9983C22.6729 27.9945 25.6505 25.0023 25.656 21.3097V12.1983H27.0655C27.443 12.2003 27.7842 11.9727 27.9289 11.6223C28.0737 11.2719 27.9932 10.8684 27.7253 10.6011ZM9.8381 3.61203C10.9414 2.57993 12.4386 1.99997 14 1.99997C15.5613 1.99997 17.0586 2.57993 18.1619 3.61203L25 9.99997H2.99999L9.8381 3.61203ZM19.1073 26C21.8071 25.9945 23.9944 23.8315 24 21.1616V12H4.00001V21.1616C4.00562 23.8315 6.19289 25.9945 8.89275 26H9.39326V18.2727C9.39886 17.7523 9.82711 17.3333 10.3534 17.3333H17.6466C18.1729 17.3333 18.6011 17.7523 18.6067 18.2727V26H19.1073Z" fill="#371B34"/>
<path d="M27.7253 10.6011L19.4081 2.24319C16.417 -0.74773 11.583 -0.74773 8.59187 2.24319L0.274736 10.6011C0.00681765 10.8684 -0.0736672 11.2719 0.0710632 11.6223C0.215794 11.9727 0.556999 12.2003 0.934508 12.1983H2.34402V21.3097C2.34953 25.0023 5.32706 27.9945 9.00172 28H10.4312C10.9463 27.9945 11.3609 27.5733 11.3609 27.0557V19.3809H16.6391V27.0557C16.6391 27.5733 17.0537 27.9945 17.5688 28H18.9983C22.6729 27.9945 25.6505 25.0023 25.656 21.3097V12.1983H27.0655C27.443 12.2003 27.7842 11.9727 27.9289 11.6223C28.0737 11.2719 27.9932 10.8684 27.7253 10.6011Z" fill="#FE8235"/>
</svg>
