<svg width="30" height="28" viewBox="0 0 30 28" fill="none" xmlns="http://www.w3.org/2000/svg">
<path d="M17.6667 23.3333C22.6947 23.3333 25.2094 23.3333 26.7707 21.7707C28.3334 20.2093 28.3334 17.6947 28.3334 12.6667C28.3334 7.63867 28.3334 5.124 26.7707 3.56267C25.2094 2 22.6947 2 17.6667 2H12.3334C7.30542 2 4.79075 2 3.22941 3.56267C1.66675 5.124 1.66675 7.63867 1.66675 12.6667C1.66675 17.6947 1.66675 20.2093 3.22941 21.7707C4.10008 22.6427 5.26675 23.028 7.00008 23.1973" stroke="#D9D8D8" stroke-width="2.6" stroke-linecap="round" stroke-linejoin="round"/>
<path d="M17.6667 23.3334C16.0187 23.3334 14.2027 24 12.5454 24.86C9.88141 26.2427 8.54941 26.9347 7.89341 26.4934C7.23741 26.0534 7.36141 24.6867 7.61074 21.9547L7.66674 21.3334" stroke="#D9D8D8" stroke-width="2.6" stroke-linecap="round"/>
</svg>
