<svg width="35" height="25" viewBox="0 0 35 25" fill="none" xmlns="http://www.w3.org/2000/svg">
<path d="M23 9L30.9677 5.017C31.2345 4.88371 31.5309 4.82079 31.8287 4.83421C32.1266 4.84762 32.4161 4.93693 32.6698 5.09366C32.9235 5.25039 33.1329 5.46933 33.2782 5.72972C33.4235 5.99012 33.4998 6.28332 33.5 6.5815V18.4185C33.4998 18.7167 33.4235 19.0099 33.2782 19.2703C33.1329 19.5307 32.9235 19.7496 32.6698 19.9063C32.4161 20.0631 32.1266 20.1524 31.8287 20.1658C31.5309 20.1792 31.2345 20.1163 30.9677 19.983L23 16V9ZM5.5 23H19.5C20.4283 23 21.3185 22.6313 21.9749 21.9749C22.6313 21.3185 23 20.4283 23 19.5V5.5C23 4.57174 22.6313 3.6815 21.9749 3.02513C21.3185 2.36875 20.4283 2 19.5 2H5.5C4.57174 2 3.6815 2.36875 3.02513 3.02513C2.36875 3.6815 2 4.57174 2 5.5V19.5C2 20.4283 2.36875 21.3185 3.02513 21.9749C3.6815 22.6313 4.57174 23 5.5 23Z" stroke="#D9D8D8" stroke-width="2.6" stroke-linecap="round" stroke-linejoin="round"/>
</svg>
