<svg width="34" height="28" viewBox="0 0 34 28" fill="none" xmlns="http://www.w3.org/2000/svg">
<path d="M24.5385 3.96919C22.1063 3.96919 20.1231 5.95241 20.1231 8.38458C20.1231 10.8167 22.1063 12.8 24.5385 12.8C26.9707 12.8 28.9539 10.8167 28.9539 8.38458C28.9539 5.95241 26.9707 3.96919 24.5385 3.96919Z" stroke="#D9D8D8" stroke-width="2.36923"/>
<path d="M13.7692 1.81538C10.7427 1.81538 8.27693 4.28118 8.27693 7.30769C8.27693 10.3342 10.7427 12.8 13.7692 12.8C16.7957 12.8 19.2615 10.3342 19.2615 7.30769C19.2615 4.28118 16.7957 1.81538 13.7692 1.81538Z" stroke="#D9D8D8" stroke-width="2.36923"/>
<path d="M29.5876 14.367L29.5876 14.367C28.006 13.2544 25.8268 12.5846 23.4616 12.5846C21.0963 12.5846 18.9171 13.2544 17.3355 14.367L17.3355 14.367C15.7639 15.4726 14.7385 17.0332 14.7385 18.7825V23.4615V24.6461H15.9231H29.9231C31.1721 24.6461 32.1846 23.6336 32.1846 22.3846V18.7825C32.1846 17.0332 31.1592 15.4726 29.5876 14.367ZM28.9078 15.3332L28.906 15.3359L28.9078 15.3332Z" stroke="#D9D8D8" stroke-width="2.36923"/>
<path d="M22.1156 15.5476L22.1156 15.5476C19.9699 14.3736 17.0036 13.6615 13.7692 13.6615C10.5349 13.6615 7.56855 14.3736 5.42285 15.5476L5.42284 15.5476C3.32842 16.6936 1.81538 18.3827 1.81538 20.4164V24.5384C1.81538 25.7875 2.82791 26.8 4.07692 26.8H23.4615C24.7106 26.8 25.7231 25.7875 25.7231 24.5384V20.4164C25.7231 18.3827 24.21 16.6936 22.1156 15.5476Z" fill="white" stroke="#D9D8D8" stroke-width="2.36923"/>
</svg>
